<svg width="20" height="20" viewBox="0 0 20 20" fill="none" xmlns="http://www.w3.org/2000/svg">
<path fill-rule="evenodd" clip-rule="evenodd" d="M15.1384 17.7798C15.4461 17.5485 15.5137 17.168 15.326 16.6309L13.7575 11.9832L17.7651 9.12587C18.2304 8.79762 18.418 8.44699 18.2979 8.08143C18.1778 7.71588 17.8251 7.53683 17.2473 7.54429L12.3316 7.58159L10.8382 2.91146C10.6581 2.36686 10.3879 2.08337 9.99764 2.08337C9.6149 2.08337 9.34473 2.36686 9.16461 2.91146L7.67116 7.58159L2.75554 7.54429C2.17767 7.53683 1.82495 7.71588 1.70487 8.08143C1.57729 8.44699 1.77241 8.79762 2.23771 9.12587L6.24526 11.9832L4.67676 16.6309C4.48914 17.168 4.55668 17.5485 4.86438 17.7798C5.17208 18.0185 5.56232 17.9365 6.02762 17.6007L9.99764 14.6987L13.9752 17.6007C14.4405 17.9365 14.8232 18.0185 15.1384 17.7798ZM13.9902 16.2951L10.3804 13.5572C10.1403 13.3707 9.8626 13.3707 9.62244 13.5572L6.01265 16.2951C5.98263 16.3175 5.96011 16.325 5.9451 16.31C5.93009 16.2877 5.9376 16.2802 5.9451 16.2354L7.43855 11.9756C7.54362 11.6847 7.48358 11.4459 7.22092 11.2669L3.48354 8.70056C3.44602 8.67818 3.43851 8.66326 3.44602 8.64834C3.45352 8.62596 3.46853 8.62596 3.51356 8.62596L8.05395 8.70056C8.36164 8.70802 8.55676 8.58866 8.65433 8.28278L9.96016 3.96329C9.96766 3.91853 9.98267 3.90361 9.99768 3.90361C10.0202 3.90361 10.0352 3.91853 10.0427 3.96329L11.3485 8.28278C11.4461 8.58866 11.6412 8.70802 11.9489 8.70056L16.4893 8.62596C16.5343 8.62596 16.5493 8.62596 16.5569 8.64834C16.5644 8.66326 16.5493 8.67818 16.5193 8.70056L12.782 11.2669C12.5193 11.4459 12.4592 11.6847 12.5643 11.9756L14.0578 16.2354C14.0653 16.2802 14.0728 16.2877 14.0578 16.31C14.0428 16.325 14.0202 16.3175 13.9902 16.2951Z" fill="#CFD8DC"/>
</svg>
